# xmcd
#
# Track frame offsets:
#	150
#	16778
#	31590
#	44737
#	56634
#	70120
#	80622
#	91843
#	101933
#	113230
#	122415
#	137039
#	152911
#	166502
#	179527
#	192303
#	203101
#	214402
#	225419
#
# Disc length: 3189 seconds
#
# Revision: 1
# Processed by: cddbd v1.5.2PL0 Copyright (c) Steve Scherf et al.
# Submitted via: audiograbber 1.83.01
#
DISCID=fe0c7313
DTITLE=George Jones - My Very Special Guests - CD2
DYEAR=1979
DGENRE=Country
TTITLE0=A Good Year for the Roses (Alan Jackson)
TTITLE1=Yesterday's Wine (Merle Haggard)
TTITLE2=Our Love Was Ahead Of Its Time (Deborah Allen)
TTITLE3=We Sure Make Good Love (Loretta Lynn)
TTITLE4=Size Seven Round (Made Of Gold) (Lacy J. Dalton)
TTITLE5=I Got Stripes (Johnny Cash)
TTITLE6=Fiddle And Guitar Band (Charlie Daniels)
TTITLE7=We Didn't See A Thing (Ray Charles and Chet Atkins)
TTITLE8=The Love Bug (Vince Gill)
TTITLE9=Love's Gonna Live Here (Buck Owens)
TTITLE10=If I Could Bottle This Up (Shelby Lynne)
TTITLE11=If You Can Touch Her At All (Lynn Anderson)
TTITLE12=All That We've Got Left (Vern Gosdin)
TTITLE13=This Bottle (In My Hand) (David Allan Coe)
TTITLE14=Talking To Hank (Mark Chesnutt)
TTITLE15=Never Bit A Bullet Like This (Sammy Kershaw)
TTITLE16=The Race Is On (Travis Tritt)
TTITLE17=I've Been There (Tim Mensy)
TTITLE18=Traveller's Prayer (Sweethearts of the Rodeo)
EXTD=
EXTT0=
EXTT1=
EXTT2=
EXTT3=
EXTT4=
EXTT5=
EXTT6=
EXTT7=
EXTT8=
EXTT9=
EXTT10=
EXTT11=
EXTT12=
EXTT13=
EXTT14=
EXTT15=
EXTT16=
EXTT17=
EXTT18=
PLAYORDER=
